<?xml version="1.0" encoding="utf-8"?>
<!-- Generator: Adobe Illustrator 15.1.0, SVG Export Plug-In  -->
<!DOCTYPE svg PUBLIC "-//W3C//DTD SVG 1.1//EN" "http://www.w3.org/Graphics/SVG/1.1/DTD/svg11.dtd" [
	<!ENTITY ns_flows "http://ns.adobe.com/Flows/1.0/">
]>
<svg version="1.1"
	 xmlns="http://www.w3.org/2000/svg" xmlns:xlink="http://www.w3.org/1999/xlink" xmlns:a="http://ns.adobe.com/AdobeSVGViewerExtensions/3.0/"
	 x="0px" y="0px" width="15px" height="15px" viewBox="-50 -96.75 512 512"
	 overflow="visible" enable-background="new -50 -96.75 512 512" xml:space="preserve">
<defs>
</defs>
<path id="tools-12-icon_1_" fill="#FFFFFF" d="M149.25,53.834h-30V30c0-16.542,13.458-30,30-30h113.5c16.542,0,30,13.458,30,30
	v23.834h-30V38.416c0-4.647-3.77-8.416-8.417-8.416h-96.666c-4.648,0-8.417,3.769-8.417,8.416V53.834z M0,73.5v96.001h412V73.5H0z
	 M18.5,189.501V318.5h211.698l-22.005-22.017c-4.264-4.263-10.15-6.509-16.168-6.175c-9.959,0.555-20.101-2.971-27.707-10.577
	c-10.163-10.163-13.042-24.851-8.64-37.579l23.109,23.108c9.016,0.53,22.955-13.41,22.425-22.424l-23.109-23.11
	c12.729-4.401,27.416-1.522,37.581,8.641c7.605,7.605,11.131,17.749,10.576,27.705c-0.334,6.023,1.91,11.902,6.174,16.168
	l46.146,46.26H393.5V189.501H18.5z"/>
</svg>
