<?xml version="1.0" encoding="utf-8"?>
<!-- Generator: Adobe Illustrator 15.1.0, SVG Export Plug-In . SVG Version: 6.00 Build 0)  -->
<!DOCTYPE svg PUBLIC "-//W3C//DTD SVG 1.1//EN" "http://www.w3.org/Graphics/SVG/1.1/DTD/svg11.dtd">
<svg version="1.1" id="Layer_1" xmlns="http://www.w3.org/2000/svg" xmlns:xlink="http://www.w3.org/1999/xlink" x="0px" y="0px"
	 width="15px" height="15px" viewBox="0 0 20 20" enable-background="new 0 0 20 20" xml:space="preserve">
<path id="wrench-icon" fill="#FFFFFF" d="M17.465,14.651l-6.473-6.472c-0.443-0.443-0.672-1.06-0.624-1.686
	c0.092-1.185-0.315-2.4-1.221-3.306c-1.18-1.18-2.884-1.514-4.361-1.003l2.682,2.682C7.53,5.912,5.912,7.53,4.866,7.468L2.185,4.787
	C1.674,6.264,2.008,7.968,3.188,9.147c0.906,0.906,2.122,1.312,3.306,1.221c0.626-0.048,1.242,0.18,1.686,0.624l6.472,6.473
	c0.776,0.776,2.036,0.776,2.813,0C18.241,16.688,18.241,15.428,17.465,14.651z M15.961,16.756c-0.453,0-0.82-0.367-0.82-0.819
	s0.367-0.819,0.82-0.819s0.82,0.367,0.82,0.819S16.414,16.756,15.961,16.756z"/>
</svg>
